%TF.GenerationSoftware,KiCad,Pcbnew,9.0.4*%
%TF.CreationDate,2025-10-03T15:45:48-04:00*%
%TF.ProjectId,RFID_NFC_TAG_9x6,52464944-5f4e-4464-935f-5441475f3978,rev?*%
%TF.SameCoordinates,Original*%
%TF.FileFunction,Legend,Bot*%
%TF.FilePolarity,Positive*%
%FSLAX46Y46*%
G04 Gerber Fmt 4.6, Leading zero omitted, Abs format (unit mm)*
G04 Created by KiCad (PCBNEW 9.0.4) date 2025-10-03 15:45:48*
%MOMM*%
%LPD*%
G01*
G04 APERTURE LIST*
%ADD10C,0.100000*%
G04 APERTURE END LIST*
D10*
X133998687Y-76528695D02*
X134332020Y-76147742D01*
X134570115Y-76528695D02*
X134570115Y-75728695D01*
X134570115Y-75728695D02*
X134189163Y-75728695D01*
X134189163Y-75728695D02*
X134093925Y-75766790D01*
X134093925Y-75766790D02*
X134046306Y-75804885D01*
X134046306Y-75804885D02*
X133998687Y-75881076D01*
X133998687Y-75881076D02*
X133998687Y-75995361D01*
X133998687Y-75995361D02*
X134046306Y-76071552D01*
X134046306Y-76071552D02*
X134093925Y-76109647D01*
X134093925Y-76109647D02*
X134189163Y-76147742D01*
X134189163Y-76147742D02*
X134570115Y-76147742D01*
X133236782Y-76109647D02*
X133570115Y-76109647D01*
X133570115Y-76528695D02*
X133570115Y-75728695D01*
X133570115Y-75728695D02*
X133093925Y-75728695D01*
X132712972Y-76528695D02*
X132712972Y-75728695D01*
X132236782Y-76528695D02*
X132236782Y-75728695D01*
X132236782Y-75728695D02*
X131998687Y-75728695D01*
X131998687Y-75728695D02*
X131855830Y-75766790D01*
X131855830Y-75766790D02*
X131760592Y-75842980D01*
X131760592Y-75842980D02*
X131712973Y-75919171D01*
X131712973Y-75919171D02*
X131665354Y-76071552D01*
X131665354Y-76071552D02*
X131665354Y-76185838D01*
X131665354Y-76185838D02*
X131712973Y-76338219D01*
X131712973Y-76338219D02*
X131760592Y-76414409D01*
X131760592Y-76414409D02*
X131855830Y-76490600D01*
X131855830Y-76490600D02*
X131998687Y-76528695D01*
X131998687Y-76528695D02*
X132236782Y-76528695D01*
X129903449Y-76528695D02*
X130236782Y-76147742D01*
X130474877Y-76528695D02*
X130474877Y-75728695D01*
X130474877Y-75728695D02*
X130093925Y-75728695D01*
X130093925Y-75728695D02*
X129998687Y-75766790D01*
X129998687Y-75766790D02*
X129951068Y-75804885D01*
X129951068Y-75804885D02*
X129903449Y-75881076D01*
X129903449Y-75881076D02*
X129903449Y-75995361D01*
X129903449Y-75995361D02*
X129951068Y-76071552D01*
X129951068Y-76071552D02*
X129998687Y-76109647D01*
X129998687Y-76109647D02*
X130093925Y-76147742D01*
X130093925Y-76147742D02*
X130474877Y-76147742D01*
X128951068Y-76528695D02*
X129522496Y-76528695D01*
X129236782Y-76528695D02*
X129236782Y-75728695D01*
X129236782Y-75728695D02*
X129332020Y-75842980D01*
X129332020Y-75842980D02*
X129427258Y-75919171D01*
X129427258Y-75919171D02*
X129522496Y-75957266D01*
X128093925Y-76528695D02*
X128093925Y-76109647D01*
X128093925Y-76109647D02*
X128141544Y-76033457D01*
X128141544Y-76033457D02*
X128236782Y-75995361D01*
X128236782Y-75995361D02*
X128427258Y-75995361D01*
X128427258Y-75995361D02*
X128522496Y-76033457D01*
X128093925Y-76490600D02*
X128189163Y-76528695D01*
X128189163Y-76528695D02*
X128427258Y-76528695D01*
X128427258Y-76528695D02*
X128522496Y-76490600D01*
X128522496Y-76490600D02*
X128570115Y-76414409D01*
X128570115Y-76414409D02*
X128570115Y-76338219D01*
X128570115Y-76338219D02*
X128522496Y-76262028D01*
X128522496Y-76262028D02*
X128427258Y-76223933D01*
X128427258Y-76223933D02*
X128189163Y-76223933D01*
X128189163Y-76223933D02*
X128093925Y-76185838D01*
M02*
