%TF.GenerationSoftware,KiCad,Pcbnew,9.0.4*%
%TF.CreationDate,2025-10-03T15:45:48-04:00*%
%TF.ProjectId,RFID_NFC_TAG_9x6,52464944-5f4e-4464-935f-5441475f3978,rev?*%
%TF.SameCoordinates,Original*%
%TF.FileFunction,Copper,L2,Bot*%
%TF.FilePolarity,Positive*%
%FSLAX46Y46*%
G04 Gerber Fmt 4.6, Leading zero omitted, Abs format (unit mm)*
G04 Created by KiCad (PCBNEW 9.0.4) date 2025-10-03 15:45:48*
%MOMM*%
%LPD*%
G01*
G04 APERTURE LIST*
%TA.AperFunction,EtchedComponent*%
%ADD10C,0.000000*%
%TD*%
%TA.AperFunction,SMDPad,CuDef*%
%ADD11C,0.500000*%
%TD*%
%TA.AperFunction,ViaPad*%
%ADD12C,0.600000*%
%TD*%
%TA.AperFunction,ViaPad*%
%ADD13C,0.500000*%
%TD*%
%TA.AperFunction,Conductor*%
%ADD14C,0.100000*%
%TD*%
G04 APERTURE END LIST*
D10*
%TA.AperFunction,EtchedComponent*%
%TO.C,REF\u002A\u002A*%
G36*
X132431600Y-73931400D02*
G01*
X131931600Y-73931400D01*
X131931600Y-72931400D01*
X132431600Y-72931400D01*
X132431600Y-73931400D01*
G37*
%TD.AperFunction*%
%TD*%
D11*
%TO.P,REF\u002A\u002A,1*%
%TO.N,ANT_LA*%
X132181600Y-72931400D03*
%TO.P,REF\u002A\u002A,2*%
%TO.N,ANT_LB*%
X132181600Y-73931400D03*
%TD*%
D12*
%TO.N,ANT_LA*%
X135534400Y-71120000D03*
D13*
%TO.N,ANT_LB*%
X132181600Y-73914000D03*
%TD*%
D14*
%TO.N,ANT_LA*%
X134188200Y-71450200D02*
X134848600Y-72110600D01*
X135458200Y-76149200D02*
X127965200Y-76149200D01*
X128371600Y-71450200D02*
X134188200Y-71450200D01*
X129184400Y-72263000D02*
X133807200Y-72263000D01*
X134442200Y-75133200D02*
X128981200Y-75133200D01*
X134645400Y-72186800D02*
X134645400Y-75336400D01*
X134391400Y-71043800D02*
X135255000Y-71907400D01*
X134289800Y-71247000D02*
X135051800Y-72009000D01*
X135458200Y-71831200D02*
X135458200Y-76149200D01*
X128371600Y-75742800D02*
X128371600Y-71450200D01*
X135661400Y-71678800D02*
X135661400Y-76352400D01*
X135661400Y-76352400D02*
X127762000Y-76352400D01*
X132207000Y-72466200D02*
X132207000Y-72923400D01*
X135255000Y-75946000D02*
X128168400Y-75946000D01*
X135051800Y-72009000D02*
X135051800Y-75742800D01*
X133858000Y-72059800D02*
X134239000Y-72440800D01*
X133985000Y-71856600D02*
X134442200Y-72313800D01*
X134442200Y-72313800D02*
X134442200Y-75133200D01*
X134035800Y-72491600D02*
X134035800Y-74701400D01*
X135534400Y-71551800D02*
X135661400Y-71678800D01*
X128168400Y-71247000D02*
X134289800Y-71247000D01*
X128981200Y-75133200D02*
X128981200Y-72059800D01*
X128778000Y-75336400D02*
X128778000Y-71856600D01*
X127762000Y-76352400D02*
X127762000Y-70840600D01*
X128778000Y-71856600D02*
X133985000Y-71856600D01*
X134112000Y-71653400D02*
X134645400Y-72186800D01*
X128574800Y-75539600D02*
X128574800Y-71653400D01*
X135255000Y-71907400D02*
X135255000Y-75946000D01*
X127965200Y-71043800D02*
X134391400Y-71043800D01*
X134848600Y-72110600D02*
X134848600Y-75539600D01*
X134239000Y-74930000D02*
X129184400Y-74930000D01*
X127965200Y-76149200D02*
X127965200Y-71043800D01*
X134645400Y-75336400D02*
X128778000Y-75336400D01*
X134035800Y-74701400D02*
X129387600Y-74701400D01*
X135534400Y-71120000D02*
X135534400Y-71551800D01*
X134467600Y-70840600D02*
X135458200Y-71831200D01*
X129387600Y-74701400D02*
X129387600Y-72466200D01*
X128168400Y-75946000D02*
X128168400Y-71247000D01*
X134239000Y-72440800D02*
X134239000Y-74930000D01*
X134848600Y-75539600D02*
X128574800Y-75539600D01*
X135051800Y-75742800D02*
X128371600Y-75742800D01*
X127762000Y-70840600D02*
X134467600Y-70840600D01*
X128981200Y-72059800D02*
X133858000Y-72059800D01*
X128574800Y-71653400D02*
X134112000Y-71653400D01*
X129387600Y-72466200D02*
X132207000Y-72466200D01*
X133807200Y-72263000D02*
X134035800Y-72491600D01*
X129184400Y-74930000D02*
X129184400Y-72263000D01*
%TD*%
M02*
