%TF.GenerationSoftware,KiCad,Pcbnew,9.0.4*%
%TF.CreationDate,2025-09-18T08:56:30-04:00*%
%TF.ProjectId,RFID_NFC_TAG_9x6,52464944-5f4e-4464-935f-5441475f3978,rev?*%
%TF.SameCoordinates,Original*%
%TF.FileFunction,Copper,L2,Bot*%
%TF.FilePolarity,Positive*%
%FSLAX46Y46*%
G04 Gerber Fmt 4.6, Leading zero omitted, Abs format (unit mm)*
G04 Created by KiCad (PCBNEW 9.0.4) date 2025-09-18 08:56:30*
%MOMM*%
%LPD*%
G01*
G04 APERTURE LIST*
%TA.AperFunction,EtchedComponent*%
%ADD10C,0.000000*%
%TD*%
%TA.AperFunction,SMDPad,CuDef*%
%ADD11C,0.300000*%
%TD*%
%TA.AperFunction,ViaPad*%
%ADD12C,0.600000*%
%TD*%
%TA.AperFunction,ViaPad*%
%ADD13C,0.500000*%
%TD*%
%TA.AperFunction,Conductor*%
%ADD14C,0.100000*%
%TD*%
G04 APERTURE END LIST*
D10*
%TA.AperFunction,EtchedComponent*%
%TO.C,NT1*%
G36*
X132431600Y-73626600D02*
G01*
X131931600Y-73626600D01*
X131931600Y-72626600D01*
X132431600Y-72626600D01*
X132431600Y-73626600D01*
G37*
%TD.AperFunction*%
%TD*%
D11*
%TO.P,NT1,1,1*%
%TO.N,Net-(U1-LA)*%
X132181600Y-72626600D03*
%TO.P,NT1,2,2*%
%TO.N,Net-(U1-LB)*%
X132181600Y-73626600D03*
%TD*%
D12*
%TO.N,Net-(U1-LA)*%
X135877300Y-70692200D03*
D13*
%TO.N,Net-(U1-LB)*%
X132181600Y-73626600D03*
%TD*%
D14*
%TO.N,Net-(U1-LA)*%
X136093200Y-76582800D02*
X136093200Y-70908100D01*
X127508000Y-76581000D02*
X127509800Y-76582800D01*
X127508000Y-70802699D02*
X127508000Y-76581000D01*
X127618500Y-70692199D02*
X127508000Y-70802699D01*
X135813800Y-76362109D02*
X135813800Y-71526400D01*
X127711200Y-76362109D02*
X135813800Y-76362109D01*
X127711200Y-70942199D02*
X127711200Y-76362109D01*
X134873999Y-70942199D02*
X127711200Y-70942199D01*
X135559800Y-76149199D02*
X135559800Y-71628000D01*
X127965200Y-76149199D02*
X135559800Y-76149199D01*
X128016001Y-71170799D02*
X127965200Y-71221600D01*
X135324159Y-75902512D02*
X135324159Y-71747959D01*
X128205100Y-71464300D02*
X128205100Y-75902512D01*
X128244601Y-71424799D02*
X128205100Y-71464300D01*
X135102600Y-75653910D02*
X135102600Y-71882000D01*
X128422400Y-75653910D02*
X135102600Y-75653910D01*
X134645399Y-71424799D02*
X128244601Y-71424799D01*
X128422400Y-71678799D02*
X128422400Y-75653910D01*
X134848600Y-75437999D02*
X134848600Y-71983600D01*
X128651000Y-75437999D02*
X134848600Y-75437999D01*
X135813800Y-71526400D02*
X134979599Y-70692199D01*
X128651000Y-71932800D02*
X128651000Y-75437999D01*
X128676401Y-71907399D02*
X128651000Y-71932800D01*
X134979599Y-70692199D02*
X127618500Y-70692199D01*
X134442199Y-71907399D02*
X128676401Y-71907399D01*
X134594600Y-72059800D02*
X134442199Y-71907399D01*
X134594600Y-75209399D02*
X134594600Y-72059800D01*
X128905000Y-75209399D02*
X134594600Y-75209399D01*
X134543799Y-71678799D02*
X128422400Y-71678799D01*
X127965200Y-71221600D02*
X127965200Y-76149199D01*
X128956144Y-72110256D02*
X128905000Y-72161400D01*
X134264057Y-72110256D02*
X128956144Y-72110256D01*
X135559800Y-71628000D02*
X134873999Y-70942199D01*
X134352025Y-72198224D02*
X134264057Y-72110256D01*
X134352025Y-74987104D02*
X134352025Y-72198224D01*
X129153982Y-74987104D02*
X134352025Y-74987104D01*
X134848600Y-71983600D02*
X134543799Y-71678799D01*
X129153982Y-72395018D02*
X129153982Y-74987104D01*
X128205100Y-75902512D02*
X135324159Y-75902512D01*
X127509800Y-76582800D02*
X136093200Y-76582800D01*
X129235200Y-72313800D02*
X129153982Y-72395018D01*
X134112000Y-74718628D02*
X134112000Y-72313800D01*
X134112000Y-72313800D02*
X129235200Y-72313800D01*
X134053029Y-74777599D02*
X134112000Y-74718628D01*
X136093200Y-70908100D02*
X135877300Y-70692200D01*
X129387600Y-74777599D02*
X134053029Y-74777599D01*
X135324159Y-71747959D02*
X134746999Y-71170799D01*
X132207000Y-72593200D02*
X129387600Y-72593200D01*
X134746999Y-71170799D02*
X128016001Y-71170799D01*
X132257800Y-72542400D02*
X132207000Y-72593200D01*
X128905000Y-72161400D02*
X128905000Y-75209399D01*
X135102600Y-71882000D02*
X134645399Y-71424799D01*
X129387600Y-72593200D02*
X129387600Y-74777599D01*
X135877300Y-70692200D02*
X135864600Y-70704900D01*
%TD*%
M02*
