%TF.GenerationSoftware,KiCad,Pcbnew,9.0.4*%
%TF.CreationDate,2025-09-18T08:56:30-04:00*%
%TF.ProjectId,RFID_NFC_TAG_9x6,52464944-5f4e-4464-935f-5441475f3978,rev?*%
%TF.SameCoordinates,Original*%
%TF.FileFunction,Copper,L1,Top*%
%TF.FilePolarity,Positive*%
%FSLAX46Y46*%
G04 Gerber Fmt 4.6, Leading zero omitted, Abs format (unit mm)*
G04 Created by KiCad (PCBNEW 9.0.4) date 2025-09-18 08:56:30*
%MOMM*%
%LPD*%
G01*
G04 APERTURE LIST*
G04 Aperture macros list*
%AMRoundRect*
0 Rectangle with rounded corners*
0 $1 Rounding radius*
0 $2 $3 $4 $5 $6 $7 $8 $9 X,Y pos of 4 corners*
0 Add a 4 corners polygon primitive as box body*
4,1,4,$2,$3,$4,$5,$6,$7,$8,$9,$2,$3,0*
0 Add four circle primitives for the rounded corners*
1,1,$1+$1,$2,$3*
1,1,$1+$1,$4,$5*
1,1,$1+$1,$6,$7*
1,1,$1+$1,$8,$9*
0 Add four rect primitives between the rounded corners*
20,1,$1+$1,$2,$3,$4,$5,0*
20,1,$1+$1,$4,$5,$6,$7,0*
20,1,$1+$1,$6,$7,$8,$9,0*
20,1,$1+$1,$8,$9,$2,$3,0*%
G04 Aperture macros list end*
%TA.AperFunction,SMDPad,CuDef*%
%ADD10R,0.558800X0.304800*%
%TD*%
%TA.AperFunction,SMDPad,CuDef*%
%ADD11R,0.457200X0.355600*%
%TD*%
%TA.AperFunction,SMDPad,CuDef*%
%ADD12RoundRect,0.155000X-0.155000X0.212500X-0.155000X-0.212500X0.155000X-0.212500X0.155000X0.212500X0*%
%TD*%
%TA.AperFunction,ViaPad*%
%ADD13C,0.600000*%
%TD*%
%TA.AperFunction,ViaPad*%
%ADD14C,0.500000*%
%TD*%
%TA.AperFunction,Conductor*%
%ADD15C,0.200000*%
%TD*%
%TA.AperFunction,Conductor*%
%ADD16C,0.100000*%
%TD*%
G04 APERTURE END LIST*
D10*
%TO.P,U1,1,LB*%
%TO.N,Net-(U1-LB)*%
X131064000Y-73939400D03*
%TO.P,U1,2,LA*%
%TO.N,Net-(U1-LA)*%
X131064000Y-73389398D03*
D11*
%TO.P,U1,3,NC*%
%TO.N,unconnected-(U1-NC-Pad3)*%
X130276600Y-73664399D03*
%TD*%
D12*
%TO.P,C1,1*%
%TO.N,Net-(U1-LA)*%
X133134100Y-72986200D03*
%TO.P,C1,2*%
%TO.N,Net-(U1-LB)*%
X133134100Y-74121200D03*
%TD*%
D13*
%TO.N,Net-(U1-LA)*%
X135877300Y-70692200D03*
D14*
%TO.N,Net-(U1-LB)*%
X132181600Y-73626600D03*
%TD*%
D15*
%TO.N,Net-(U1-LB)*%
X132181600Y-73626600D02*
X132181600Y-74091800D01*
X132181600Y-74091800D02*
X132757100Y-74091800D01*
D16*
%TO.N,Net-(U1-LA)*%
X129171700Y-72165400D02*
X129160275Y-72176825D01*
X135877300Y-70692200D02*
X135851900Y-70692200D01*
X134073900Y-72986200D02*
X133134100Y-72986200D01*
X135307200Y-71823900D02*
X134886700Y-71403400D01*
X135246300Y-70670800D02*
X127698500Y-70670800D01*
X135801100Y-71606600D02*
X135115300Y-70920800D01*
X134358318Y-74965705D02*
X134358318Y-72368600D01*
X128188141Y-71149400D02*
X128188141Y-75881113D01*
X134429500Y-72165400D02*
X129171700Y-72165400D01*
X134962900Y-71149400D02*
X128188141Y-71149400D01*
X134358318Y-72368600D02*
X129400300Y-72368600D01*
X129160275Y-72176825D02*
X129160275Y-74965705D01*
X127508000Y-70412800D02*
X127508000Y-76574731D01*
X134124700Y-73037000D02*
X134073900Y-72986200D01*
X129459271Y-74756200D02*
X134124700Y-74756200D01*
X127698500Y-76340710D02*
X135801100Y-76340710D01*
X129400300Y-72368600D02*
X129400300Y-74697229D01*
X134607300Y-72343200D02*
X134429500Y-72165400D01*
X134886700Y-71403400D02*
X128409700Y-71403400D01*
D15*
X131089400Y-73075800D02*
X131267200Y-72898000D01*
D16*
X135547100Y-76127800D02*
X135547100Y-71733600D01*
X127508000Y-76574731D02*
X136080500Y-76574731D01*
X128663700Y-75416600D02*
X134861300Y-75416600D01*
X134861300Y-75416600D02*
X134861300Y-72216200D01*
X135089900Y-71987600D02*
X134759700Y-71657400D01*
X128917700Y-75188000D02*
X134607300Y-75188000D01*
X134124700Y-74756200D02*
X134124700Y-73037000D01*
X135547100Y-71733600D02*
X134962900Y-71149400D01*
X135572500Y-70412800D02*
X127508000Y-70412800D01*
X134531100Y-71886000D02*
X128917700Y-71886000D01*
X128663700Y-71657400D02*
X128663700Y-75416600D01*
X135851900Y-70692200D02*
X135572500Y-70412800D01*
X134759700Y-71657400D02*
X128663700Y-71657400D01*
D15*
X131267200Y-72898000D02*
X133045900Y-72898000D01*
D16*
X134861300Y-72216200D02*
X134531100Y-71886000D01*
X128409700Y-71403400D02*
X128409700Y-75632511D01*
X127952500Y-76127800D02*
X135547100Y-76127800D01*
X135801100Y-76340710D02*
X135801100Y-71606600D01*
X128188141Y-75881113D02*
X135307200Y-75881113D01*
X128409700Y-75632511D02*
X135089900Y-75632511D01*
X134607300Y-75188000D02*
X134607300Y-72343200D01*
X136080500Y-71505000D02*
X135246300Y-70670800D01*
D15*
X131089400Y-73376299D02*
X131089400Y-73075800D01*
D16*
X129160275Y-74965705D02*
X134358318Y-74965705D01*
X135089900Y-75632511D02*
X135089900Y-71987600D01*
X136080500Y-76574731D02*
X136080500Y-71505000D01*
X135307200Y-75881113D02*
X135307200Y-71823900D01*
X128917700Y-71886000D02*
X128917700Y-75188000D01*
X135115300Y-70920800D02*
X127952500Y-70920800D01*
X129400300Y-74697229D02*
X129459271Y-74756200D01*
X127952500Y-70920800D02*
X127952500Y-76127800D01*
X127698500Y-70670800D02*
X127698500Y-76340710D01*
D15*
X133045900Y-72898000D02*
X133083300Y-72935400D01*
%TO.N,Net-(U1-LB)*%
X131064000Y-74091800D02*
X133104700Y-74091800D01*
X133104700Y-74091800D02*
X133134100Y-74121200D01*
X131064000Y-73939400D02*
X131064000Y-74091800D01*
%TO.N,Net-(U1-LA)*%
X131093701Y-73380600D02*
X131089400Y-73376299D01*
%TD*%
M02*
